ISO-10303-21;
HEADER;
FILE_DESCRIPTION(('ViewDefinition[DesignTransferView]'),'2;1');
FILE_NAME('void.ifc','2025-01-28T08:09:23+01:00',$,$,'IfcOpenShell 0.8.0','Bonsai 0.8.0','Nobody');
FILE_SCHEMA(('IFC4'));
ENDSEC;
DATA;
#1=IFCPROJECT('0cEdn5uW5CxBvCt6kr7L9G',$,'My Project',$,$,$,$,(#14,#26),#9);
#2=IFCSIUNIT(*,.LENGTHUNIT.,.MILLI.,.METRE.);
#3=IFCSIUNIT(*,.AREAUNIT.,$,.SQUARE_METRE.);
#4=IFCSIUNIT(*,.VOLUMEUNIT.,$,.CUBIC_METRE.);
#5=IFCDIMENSIONALEXPONENTS(0,0,0,0,0,0,0);
#6=IFCSIUNIT(*,.PLANEANGLEUNIT.,$,.RADIAN.);
#7=IFCMEASUREWITHUNIT(IFCREAL(0.0174532925199433),#6);
#8=IFCCONVERSIONBASEDUNIT(#5,.PLANEANGLEUNIT.,'degree',#7);
#9=IFCUNITASSIGNMENT((#4,#2,#8,#3));
#10=IFCCARTESIANPOINT((0.,0.,0.));
#11=IFCDIRECTION((0.,0.,1.));
#12=IFCDIRECTION((1.,0.,0.));
#13=IFCAXIS2PLACEMENT3D(#10,#11,#12);
#14=IFCGEOMETRICREPRESENTATIONCONTEXT($,'Model',3,1.E-05,#13,$);
#15=IFCGEOMETRICREPRESENTATIONSUBCONTEXT('Body','Model',*,*,*,*,#14,$,.MODEL_VIEW.,$);
#16=IFCGEOMETRICREPRESENTATIONSUBCONTEXT('Axis','Model',*,*,*,*,#14,$,.GRAPH_VIEW.,$);
#17=IFCGEOMETRICREPRESENTATIONSUBCONTEXT('Box','Model',*,*,*,*,#14,$,.MODEL_VIEW.,$);
#18=IFCGEOMETRICREPRESENTATIONSUBCONTEXT('Annotation','Model',*,*,*,*,#14,$,.SECTION_VIEW.,$);
#19=IFCGEOMETRICREPRESENTATIONSUBCONTEXT('Annotation','Model',*,*,*,*,#14,$,.ELEVATION_VIEW.,$);
#20=IFCGEOMETRICREPRESENTATIONSUBCONTEXT('Annotation','Model',*,*,*,*,#14,$,.MODEL_VIEW.,$);
#21=IFCGEOMETRICREPRESENTATIONSUBCONTEXT('Annotation','Model',*,*,*,*,#14,$,.PLAN_VIEW.,$);
#22=IFCGEOMETRICREPRESENTATIONSUBCONTEXT('Profile','Model',*,*,*,*,#14,$,.ELEVATION_VIEW.,$);
#23=IFCCARTESIANPOINT((0.,0.));
#24=IFCDIRECTION((1.,0.));
#25=IFCAXIS2PLACEMENT2D(#23,#24);
#26=IFCGEOMETRICREPRESENTATIONCONTEXT($,'Plan',2,1.E-05,#25,$);
#27=IFCGEOMETRICREPRESENTATIONSUBCONTEXT('Axis','Plan',*,*,*,*,#26,$,.GRAPH_VIEW.,$);
#28=IFCGEOMETRICREPRESENTATIONSUBCONTEXT('Body','Plan',*,*,*,*,#26,$,.PLAN_VIEW.,$);
#29=IFCGEOMETRICREPRESENTATIONSUBCONTEXT('Annotation','Plan',*,*,*,*,#26,$,.PLAN_VIEW.,$);
#30=IFCSITE('0pY1egelvBnADnJOj8pkDc',$,'My Site',$,$,#53,$,$,$,$,$,$,$,$);
#36=IFCBUILDING('39y_2alXPFyPpDRtpPxMIJ',$,'My Building',$,$,#59,$,$,$,$,$,$);
#42=IFCBUILDINGSTOREY('19KDSI2Ev8u9MgUiSQNHCg',$,'My Storey',$,$,#65,$,$,$,$);
#48=IFCRELAGGREGATES('0mHAeRj9D0Uxqaz7ss89Xi',$,$,$,#1,(#30));
#49=IFCCARTESIANPOINT((0.,0.,0.));
#50=IFCDIRECTION((0.,0.,1.));
#51=IFCDIRECTION((1.,0.,0.));
#52=IFCAXIS2PLACEMENT3D(#49,#50,#51);
#53=IFCLOCALPLACEMENT($,#52);
#54=IFCRELAGGREGATES('030Mp22$z5_e83NgRjpgas',$,$,$,#30,(#36));
#55=IFCCARTESIANPOINT((0.,0.,0.));
#56=IFCDIRECTION((0.,0.,1.));
#57=IFCDIRECTION((1.,0.,0.));
#58=IFCAXIS2PLACEMENT3D(#55,#56,#57);
#59=IFCLOCALPLACEMENT(#53,#58);
#60=IFCRELAGGREGATES('2u$U0J8cL9x9xySJNiv8cR',$,$,$,#36,(#42));
#61=IFCCARTESIANPOINT((0.,0.,0.));
#62=IFCDIRECTION((0.,0.,1.));
#63=IFCDIRECTION((1.,0.,0.));
#64=IFCAXIS2PLACEMENT3D(#61,#62,#63);
#65=IFCLOCALPLACEMENT(#59,#64);
#66=IFCBUILDINGELEMENTPROXY('1gQO0Xqz9FueIlWHxWsHx5',$,'void_wall_for_duct',$,$,#90,#84,$,.PROVISIONFORVOID.);
#72=IFCINDEXEDPOLYGONALFACE((1,2,4,3));
#73=IFCINDEXEDPOLYGONALFACE((3,4,8,7));
#74=IFCINDEXEDPOLYGONALFACE((7,8,6,5));
#75=IFCINDEXEDPOLYGONALFACE((5,6,2,1));
#76=IFCINDEXEDPOLYGONALFACE((3,7,5,1));
#77=IFCINDEXEDPOLYGONALFACE((8,4,2,6));
#78=IFCCARTESIANPOINTLIST3D(((-249.999984741211,-249.999984741211,-150.),(-249.999984741211,-249.999984741211,150.),(-249.999984741211,249.999984741211,-150.),(-249.999984741211,249.999984741211,150.),(249.999984741211,-249.999984741211,-150.),(249.999984741211,-249.999984741211,150.),(249.999984741211,249.999984741211,-150.),(249.999984741211,249.999984741211,150.)));
#79=IFCPOLYGONALFACESET(#78,.T.,(#72,#73,#74,#75,#76,#77),$);
#80=IFCSHAPEREPRESENTATION(#15,'Body','Tessellation',(#79));
#81=IFCCARTESIANPOINT((-250.,-250.,-150.000005960464));
#82=IFCBOUNDINGBOX(#81,500.,500.,300.000011920929);
#83=IFCSHAPEREPRESENTATION(#17,'Box','BoundingBox',(#82));
#84=IFCPRODUCTDEFINITIONSHAPE($,$,(#83,#80));
#85=IFCRELCONTAINEDINSPATIALSTRUCTURE('1bHQkkCubC2wn3M145b0qN',$,$,$,(#66,#115,#91),#42);
#86=IFCCARTESIANPOINT((0.,0.,150.000005960464));
#87=IFCDIRECTION((0.,0.,1.));
#88=IFCDIRECTION((1.,0.,0.));
#89=IFCAXIS2PLACEMENT3D(#86,#87,#88);
#90=IFCLOCALPLACEMENT(#65,#89);
#91=IFCBUILDINGELEMENTPROXY('3AN8LoA4L4tx8kC1XvfN$n',$,'void_no_wall',$,$,#114,#109,$,.PROVISIONFORVOID.);
#97=IFCINDEXEDPOLYGONALFACE((1,2,4,3));
#98=IFCINDEXEDPOLYGONALFACE((3,4,8,7));
#99=IFCINDEXEDPOLYGONALFACE((7,8,6,5));
#100=IFCINDEXEDPOLYGONALFACE((5,6,2,1));
#101=IFCINDEXEDPOLYGONALFACE((3,7,5,1));
#102=IFCINDEXEDPOLYGONALFACE((8,4,2,6));
#103=IFCCARTESIANPOINTLIST3D(((-249.999984741211,-249.999984741211,-150.),(-249.999984741211,-249.999984741211,150.),(-249.999984741211,249.999984741211,-150.),(-249.999984741211,249.999984741211,150.),(249.999984741211,-249.999984741211,-150.),(249.999984741211,-249.999984741211,150.),(249.999984741211,249.999984741211,-150.),(249.999984741211,249.999984741211,150.)));
#104=IFCPOLYGONALFACESET(#103,.T.,(#97,#98,#99,#100,#101,#102),$);
#105=IFCSHAPEREPRESENTATION(#15,'Body','Tessellation',(#104));
#106=IFCCARTESIANPOINT((-250.,-250.,-150.000005960464));
#107=IFCBOUNDINGBOX(#106,500.,500.,300.000011920929);
#108=IFCSHAPEREPRESENTATION(#17,'Box','BoundingBox',(#107));
#109=IFCPRODUCTDEFINITIONSHAPE($,$,(#108,#105));
#110=IFCCARTESIANPOINT((0.,0.,-200.000002980232));
#111=IFCDIRECTION((0.,0.,1.));
#112=IFCDIRECTION((1.,0.,0.));
#113=IFCAXIS2PLACEMENT3D(#110,#111,#112);
#114=IFCLOCALPLACEMENT(#65,#113);
#115=IFCBUILDINGELEMENTPROXY('1CEM6lEiP98eja8KS1gy0F',$,'void_wall_no_duct',$,$,#138,#133,$,.PROVISIONFORVOID.);
#121=IFCINDEXEDPOLYGONALFACE((1,2,4,3));
#122=IFCINDEXEDPOLYGONALFACE((3,4,8,7));
#123=IFCINDEXEDPOLYGONALFACE((7,8,6,5));
#124=IFCINDEXEDPOLYGONALFACE((5,6,2,1));
#125=IFCINDEXEDPOLYGONALFACE((3,7,5,1));
#126=IFCINDEXEDPOLYGONALFACE((8,4,2,6));
#127=IFCCARTESIANPOINTLIST3D(((-249.999984741211,-249.999984741211,-150.),(-249.999984741211,-249.999984741211,150.),(-249.999984741211,249.999984741211,-150.),(-249.999984741211,249.999984741211,150.),(249.999984741211,-249.999984741211,-150.),(249.999984741211,-249.999984741211,150.),(249.999984741211,249.999984741211,-150.),(249.999984741211,249.999984741211,150.)));
#128=IFCPOLYGONALFACESET(#127,.T.,(#121,#122,#123,#124,#125,#126),$);
#129=IFCSHAPEREPRESENTATION(#15,'Body','Tessellation',(#128));
#130=IFCCARTESIANPOINT((-250.,-250.,-150.000005960464));
#131=IFCBOUNDINGBOX(#130,500.,500.,300.000011920929);
#132=IFCSHAPEREPRESENTATION(#17,'Box','BoundingBox',(#131));
#133=IFCPRODUCTDEFINITIONSHAPE($,$,(#132,#129));
#134=IFCCARTESIANPOINT((0.,0.,600.000023841858));
#135=IFCDIRECTION((0.,0.,1.));
#136=IFCDIRECTION((1.,0.,0.));
#137=IFCAXIS2PLACEMENT3D(#134,#135,#136);
#138=IFCLOCALPLACEMENT(#65,#137);
ENDSEC;
END-ISO-10303-21;
